<?xml version="1.0" encoding="utf-8"?>
<svg xmlns="http://www.w3.org/2000/svg"
	xmlns:xlink="http://www.w3.org/1999/xlink"
	width="9px" height="15px">
<path fill="rgb(255,255,255)" fill-rule="evenodd" d="M 5.79 14.99C 5.79 14.99 3.07 14.99 3.07 14.99 2.88 14.99 2.72 14.84 2.72 14.65 2.72 14.65 2.72 7.49 2.72 7.49 2.72 7.49 0.35 7.49 0.35 7.49 0.15 7.49-0 7.34-0 7.15-0 7.15-0 5.16-0 5.16-0 4.96 0.15 4.81 0.35 4.81 0.35 4.81 2.52 4.81 2.52 4.81 2.52 3.33 2.74 2.7 2.75 2.67 3.39 0.13 5.77 0.01 6.24 0.01 6.32 0.01 6.37 0.01 6.37 0.01 6.37 0.01 8.65 0.01 8.65 0.01 8.85 0.01 9 0.16 9 0.35 9 0.35 9 2.43 9 2.43 9 2.62 8.85 2.78 8.65 2.78 8.65 2.78 7.52 2.78 7.52 2.78 6.5 2.78 6.14 3.38 6.14 3.95 6.14 3.95 6.14 4.81 6.14 4.81 6.14 4.81 8.52 4.81 8.52 4.81 8.71 4.81 8.86 4.96 8.86 5.16 8.86 5.16 8.86 7.15 8.86 7.15 8.86 7.35 8.71 7.5 8.52 7.5 8.52 7.5 6.13 7.5 6.13 7.5 6.13 7.5 6.13 14.65 6.13 14.65 6.13 14.84 5.98 14.99 5.79 14.99ZM 3.42 14.3C 3.42 14.3 5.44 14.3 5.44 14.3 5.44 14.3 5.44 7.15 5.44 7.15 5.44 6.96 5.59 6.81 5.79 6.81 5.79 6.81 8.17 6.81 8.17 6.81 8.17 6.81 8.17 5.5 8.17 5.5 8.17 5.5 5.79 5.5 5.79 5.5 5.6 5.5 5.44 5.35 5.44 5.16 5.44 5.16 5.44 3.95 5.44 3.95 5.44 3.02 6.08 2.08 7.52 2.08 7.52 2.08 8.3 2.08 8.3 2.08 8.3 2.08 8.3 0.7 8.3 0.7 8.3 0.7 6.34 0.7 6.34 0.7 6.31 0.7 6.28 0.7 6.24 0.7 5.7 0.7 3.93 0.86 3.41 2.87 3.4 2.9 3.19 3.57 3.22 5.15 3.22 5.24 3.18 5.33 3.12 5.4 3.05 5.47 2.96 5.5 2.87 5.5 2.87 5.5 0.7 5.5 0.7 5.5 0.7 5.5 0.7 6.8 0.7 6.8 0.7 6.8 3.07 6.8 3.07 6.8 3.26 6.8 3.42 6.96 3.42 7.15 3.42 7.15 3.42 14.3 3.42 14.3Z"/>
</svg>