<?xml version="1.0" encoding="utf-8"?>
<svg xmlns="http://www.w3.org/2000/svg"
	xmlns:xlink="http://www.w3.org/1999/xlink"
	width="19px" height="16px">
<path fill="rgb(255,255,255)" fill-rule="evenodd" d="M 6.14 15.5C 4.5 15.5 2.13 15.19 0.17 13.72 0.01 13.6-0.04 13.39 0.04 13.21 0.11 13.03 0.31 12.92 0.5 12.96 0.51 12.96 0.94 13.03 1.56 13.03 2.54 13.03 3.83 12.86 4.87 12.13 3.96 11.88 2.67 11.22 2.12 9.45 2.07 9.3 2.11 9.14 2.21 9.03 2.25 8.98 2.31 8.94 2.37 8.92 1.57 8.32 0.79 7.3 0.82 5.58 0.82 5.42 0.91 5.28 1.06 5.2 1.18 5.14 1.33 5.15 1.45 5.21 0.8 4.13 0.41 2.58 1.36 0.95 1.43 0.83 1.56 0.75 1.7 0.74 1.84 0.73 1.97 0.79 2.06 0.89 2.09 0.93 5.14 4.46 8.9 4.56 8.88 4.39 8.87 4.23 8.87 4.07 8.87 1.82 10.7-0 12.95-0 13.99-0 14.97 0.38 15.73 1.08 16.19 1.07 16.99 0.94 17.78 0.37 17.91 0.28 18.08 0.27 18.22 0.33 18.36 0.4 18.45 0.54 18.46 0.69 18.47 0.81 18.46 1.29 17.88 2.02 18.06 1.96 18.21 1.89 18.31 1.82 18.46 1.7 18.66 1.7 18.81 1.81 18.97 1.91 19.03 2.1 18.98 2.28 18.95 2.42 18.69 2.98 17.11 4.43 17.13 5.8 16.81 13.34 8.38 15.31 8.34 15.31 7.44 15.5 6.14 15.5ZM 2.13 13.87C 3.54 14.49 5.02 14.64 6.14 14.64 7.34 14.64 8.19 14.47 8.2 14.47 16.72 12.48 16.26 4.36 16.25 4.27 16.24 4.14 16.29 4.01 16.39 3.93 16.78 3.57 17.08 3.28 17.32 3.04 16.94 3.11 16.63 3.13 16.56 3.14 16.38 3.15 16.2 3.04 16.13 2.86 16.06 2.69 16.12 2.49 16.27 2.37 16.57 2.13 16.81 1.92 16.99 1.72 16.42 1.91 15.93 1.94 15.61 1.94 15.61 1.94 15.55 1.94 15.55 1.94 15.43 1.94 15.33 1.9 15.25 1.82 14.64 1.2 13.82 0.86 12.95 0.86 11.17 0.86 9.73 2.3 9.73 4.07 9.73 4.34 9.76 4.61 9.83 4.87 9.86 4.99 9.84 5.13 9.76 5.23 9.68 5.33 9.57 5.4 9.44 5.41 5.88 5.61 2.93 3.02 1.85 1.92 1.04 4.03 2.9 5.65 2.99 5.72 3.12 5.83 3.17 6.01 3.12 6.17 3.08 6.33 2.94 6.45 2.77 6.47 2.41 6.53 2.04 6.45 1.73 6.33 2.08 8.38 4.04 8.83 4.13 8.85 4.31 8.89 4.45 9.04 4.47 9.22 4.49 9.41 4.39 9.58 4.22 9.66 3.95 9.78 3.6 9.84 3.2 9.82 4.05 11.4 5.75 11.42 5.83 11.42 6 11.42 6.15 11.52 6.22 11.67 6.29 11.83 6.26 12.01 6.15 12.14 5.01 13.39 3.42 13.79 2.13 13.87Z"/>
</svg>