<svg xmlns="http://www.w3.org/2000/svg" width="39.25" height="50.493" viewBox="28.925 23.771 39.25 50.493"><g fill="#FFF"><path d="M65.928 63.838h-7.156c-.564 0-1.022.457-1.022 1.021v7.157H31.174V26.019h34.754v37.819zm-6.133 6.731v-4.686h4.687l-4.687 4.686zm7.154-46.594H30.153c-.565 0-1.023.457-1.023 1.022v48.04c0 .564.458 1.022 1.023 1.022H58.77c.267 0 .528-.104.723-.3l8.178-8.176c.195-.196.297-.457.297-.724h.002V24.997c0-.565-.457-1.022-1.022-1.022"/><path d="M59.998 66.086v3.99l3.99-3.99h-3.99zm-.408 4.977v-5.385h5.385l-5.385 5.385zm-28.21.748h26.166v-6.952c0-.675.55-1.226 1.226-1.226h6.95v-37.41H31.38v45.588zm26.574.408H30.97V25.815h35.16v38.227h-7.357a.82.82 0 0 0-.819.817v7.36zm-27.801-48.04a.819.819 0 0 0-.818.818v48.04c0 .451.367.817.818.817H58.77a.815.815 0 0 0 .58-.239l8.176-8.178a.816.816 0 0 0 .238-.578l.003-.203V24.997a.819.819 0 0 0-.819-.818H30.153zM58.77 74.264H30.153c-.677 0-1.228-.551-1.228-1.227v-48.04c0-.677.551-1.226 1.228-1.226h36.796c.676 0 1.227.55 1.227 1.226v40.067h-.02c-.04.25-.158.482-.34.663l-8.176 8.177a1.22 1.22 0 0 1-.869.36"/><path d="M34.752 29.085h8.177v2.045h-8.177v-2.045"/><path d="M34.956 30.925h7.769V29.29h-7.769v1.635zm8.177.409h-8.586v-2.453h8.586v2.453M34.752 32.151H48.04v2.045H34.752V32.15"/><path d="M34.956 33.992h12.88v-1.635h-12.88v1.635zm13.288.408H34.547v-2.453h13.697V34.4M36.796 44.417h5.623v21.466h-5.623V44.417zm0-5.621h5.623v3.577h-5.623v-3.577zm7.666 11.754h15.843v4.089H44.462v-4.09zm0-6.133h15.843v4.089H44.462v-4.09zm0-5.621h15.843v3.577H44.462v-3.577zm-8.688 29.13h18.398v-2.043h-9.71v-9.2h15.843v4.089h2.045V37.774c0-.565-.457-1.022-1.022-1.022H35.774c-.565 0-1.022.457-1.022 1.022v29.13c0 .565.457 1.023 1.022 1.023"/><path d="M37 42.169h5.213V39H37v3.169zm5.623.409h-6.031V38.59h6.03v3.987zm2.044-.41h15.435V39H44.667v3.169zm15.843.41H44.258V38.59H60.51v3.987zm-15.843 5.724h15.435v-3.68H44.667v3.68zm15.843.409H44.258v-4.498H60.51v4.498zm-15.843 5.724h15.435v-3.68H44.667v3.68zm15.843.409H44.258v-4.498H60.51v4.498zM37 65.678h5.213V44.622H37v21.056zm5.623.408h-6.031V44.213h6.03v21.873zm-6.85-29.13a.819.819 0 0 0-.817.817v29.131c0 .451.367.818.818.818h18.195v-1.636h-9.711v-9.608H60.51v4.09h1.635V37.773a.818.818 0 0 0-.817-.818H35.774zM54.378 68.13H35.774c-.676 0-1.227-.551-1.227-1.227v-29.13c0-.677.55-1.227 1.227-1.227h25.554c.676 0 1.227.55 1.227 1.226v23.204h-2.453v-4.09H44.667v8.79h9.71v2.454"/><path d="M38.33 45.95h2.555v2.045H38.33V45.95"/><path d="M38.534 47.79h2.146v-1.635h-2.146v1.636zm2.555.409h-2.964v-2.452h2.964v2.452M38.33 52.084h2.555v2.043H38.33v-2.043"/><path d="M38.534 53.924h2.146v-1.637h-2.146v1.637zm2.555.408h-2.964v-2.453h2.964v2.453M38.33 58.217h2.555v2.043H38.33v-2.043"/><path d="M38.534 60.057h2.146V58.42h-2.146v1.637zm2.555.408h-2.964v-2.453h2.964v2.453M38.33 62.305h2.555v2.045H38.33v-2.045"/><path d="M38.534 64.145h2.146v-1.636h-2.146v1.636zm2.555.408h-2.964V62.1h2.964v2.452"/></g></svg>