<svg xmlns="http://www.w3.org/2000/svg" width="50.305" height="53.991" viewBox="22.917 22.318 50.305 53.991"><path fill="#FFF" d="M48.932 48.393v-.934a8.313 8.313 0 0 1 4.395 1.825l-7.709 7.709a.864.864 0 0 0 1.22 1.221l7.709-7.709a8.313 8.313 0 0 1 1.824 4.393h-.934a.863.863 0 1 0 0 1.726h.934a8.361 8.361 0 0 1-7.438 7.439v-1.855a.863.863 0 1 0-1.727 0v1.855a8.362 8.362 0 0 1-7.438-7.439h.934a.863.863 0 0 0 0-1.726h-.934a8.362 8.362 0 0 1 7.438-7.438v.934a.863.863 0 1 0 1.726-.001zm-.863-2.706c-5.554 0-10.073 4.519-10.073 10.073 0 5.555 4.519 10.073 10.073 10.073s10.073-4.519 10.073-10.073-4.519-10.073-10.073-10.073"/><path fill="#FFF" d="M40.16 56.969a8.035 8.035 0 0 0 6.701 6.701v-1.463a1.21 1.21 0 0 1 2.418 0v1.463a8.034 8.034 0 0 0 6.7-6.701h-.541a1.21 1.21 0 0 1 0-2.417h.541a7.948 7.948 0 0 0-1.465-3.526l-7.432 7.432a1.197 1.197 0 0 1-.854.354 1.208 1.208 0 0 1-.854-2.063l7.432-7.432a7.954 7.954 0 0 0-3.526-1.466v.542c0 .666-.543 1.209-1.209 1.209a1.21 1.21 0 0 1-1.209-1.209v-.542a8.032 8.032 0 0 0-6.701 6.701h.542a1.209 1.209 0 0 1 0 2.417h-.543zm8.428 7.476v-2.238a.519.519 0 0 0-1.037 0v2.238l-.381-.04c-4.068-.42-7.326-3.679-7.747-7.747l-.039-.38h1.317a.518.518 0 0 0 0-1.037h-1.317l.039-.381c.42-4.068 3.678-7.326 7.747-7.746l.381-.039v1.316a.519.519 0 0 0 1.036 0v-1.317l.381.04a8.639 8.639 0 0 1 4.575 1.9l.297.241-7.979 7.979a.518.518 0 1 0 .733.732l7.979-7.979.242.297a8.626 8.626 0 0 1 1.899 4.575l.04.381h-1.316a.519.519 0 1 0 0 1.037h1.316l-.039.38c-.42 4.068-3.678 7.327-7.746 7.747l-.381.041zm-.519-18.413c-5.364 0-9.728 4.364-9.728 9.728s4.364 9.728 9.728 9.728 9.728-4.363 9.728-9.728c0-5.364-4.364-9.728-9.728-9.728zm0 20.147c-5.745 0-10.418-4.674-10.418-10.419 0-5.744 4.674-10.417 10.418-10.418 5.745 0 10.418 4.674 10.418 10.418 0 5.745-4.673 10.419-10.418 10.419"/><path fill="#FFF" d="M65.439 30.574a.976.976 0 0 1-.773.378H31.472a.974.974 0 0 1-.772-.378l-4.81-6.184h44.359l-4.81 6.184zm-11.412 3.321a.978.978 0 0 1-.949.741H43.061a.977.977 0 0 1-.949-.741l-.304-1.216h12.524l-.305 1.216zm-7.86 2.467h3.805c-.001.02-.003.038-.003.058v1.899H46.17V36.42c0-.02-.002-.038-.003-.058zm5.586 3.684c.032 0 .058.026.058.057v2.417a13.706 13.706 0 0 0-3.741-.518c-1.296 0-2.551.181-3.741.518v-2.417c0-.031.025-.057.057-.057h7.367zm.921 4.605h.009c4.35 1.813 7.417 6.109 7.417 11.109 0 6.633-5.396 12.03-12.03 12.03-6.633 0-12.03-5.397-12.03-12.03 0-5 3.065-9.296 7.416-11.109h.009a.855.855 0 0 0 .584-.229 11.985 11.985 0 0 1 4.021-.691c1.409 0 2.763.244 4.021.691a.85.85 0 0 0 .583.229zm10.32 14.699l.745 14.887h-31.34l.745-14.887a1.899 1.899 0 0 1 1.298-1.707c.92 6.698 6.681 11.875 13.627 11.875 6.946 0 12.706-5.177 13.628-11.875.724.24 1.257.904 1.297 1.707zm9.795-36.203a.863.863 0 0 0-.775-.484H24.125a.862.862 0 0 0-.681 1.393l5.894 7.578a2.687 2.687 0 0 0 2.135 1.044h8.556l.409 1.635a2.702 2.702 0 0 0 2.625 2.049h1.385l-.002.058v1.899h-.058c-.984 0-1.784.8-1.784 1.784v3.035c-4.873 2.119-8.289 6.979-8.289 12.622l.001.131a3.623 3.623 0 0 0-2.894 3.373l-.79 15.793a.866.866 0 0 0 .862.907h33.154a.862.862 0 0 0 .862-.907l-.79-15.793a3.625 3.625 0 0 0-2.895-3.373l.002-.131c0-5.643-3.416-10.502-8.289-12.622v-3.035c0-.984-.801-1.784-1.784-1.784h-.058V36.42l-.002-.058h1.385a2.704 2.704 0 0 0 2.625-2.049l.408-1.635h8.555c.842 0 1.62-.381 2.137-1.044l5.893-7.578a.86.86 0 0 0 .092-.909"/><path fill="#FFF" d="M26.596 24.735l4.376 5.626a.628.628 0 0 0 .5.245h33.194a.628.628 0 0 0 .5-.245l4.377-5.626H26.596zm38.07 6.562H31.472c-.411 0-.792-.187-1.044-.511l-5.243-6.742h45.771l-5.244 6.742a1.316 1.316 0 0 1-1.046.511zM42.25 33.024l.197.787a.632.632 0 0 0 .614.479h10.018a.632.632 0 0 0 .614-.479l.196-.787H42.25zm10.828 1.957H43.061a1.324 1.324 0 0 1-1.285-1.003l-.411-1.645h13.408l-.412 1.645a1.318 1.318 0 0 1-1.283 1.003zm-6.563 2.993h3.108v-1.266h-3.108v1.266zm3.799.691h-4.49V36.42l-.001-.023-.025-.38h4.543l-.025.37-.002.034v2.244zm-2.245 2.993c1.149 0 2.289.139 3.396.414v-1.68h-6.792v1.68a14.083 14.083 0 0 1 3.396-.414zm4.087 1.319l-.439-.124a13.382 13.382 0 0 0-3.647-.504c-1.238 0-2.465.169-3.647.504l-.439.124v-2.874c0-.222.181-.402.403-.402h7.368c.223 0 .403.181.403.402v2.874zm-8.628 2.018a11.665 11.665 0 0 0-7.144 10.765c0 6.443 5.242 11.686 11.685 11.686 6.443 0 11.685-5.242 11.685-11.686 0-4.709-2.802-8.927-7.144-10.765a1.196 1.196 0 0 1-.697-.269 11.61 11.61 0 0 0-3.844-.65c-1.316 0-2.609.219-3.844.65a1.205 1.205 0 0 1-.697.269zm4.541 23.14c-6.824 0-12.375-5.551-12.375-12.375 0-5.01 2.995-9.496 7.629-11.428l.063-.026h.088a.518.518 0 0 0 .341-.137l.052-.048.066-.024a12.323 12.323 0 0 1 4.136-.711c1.417 0 2.808.24 4.136.711l.066.024.053.048a.513.513 0 0 0 .34.137h.088l.064.026a12.354 12.354 0 0 1 7.629 11.428c0 6.824-5.552 12.375-12.376 12.375zm-15.306 5.757h30.613l-.727-14.525a1.538 1.538 0 0 0-.683-1.21c-1.152 6.705-7.045 11.706-13.897 11.706s-12.745-5.001-13.897-11.706a1.54 1.54 0 0 0-.683 1.211l-.726 14.524zm31.339.69H32.037l.762-15.25a2.232 2.232 0 0 1 1.534-2.018l.394-.131.057.412c.908 6.6 6.619 11.576 13.286 11.576s12.378-4.977 13.285-11.576l.058-.412.394.131a2.232 2.232 0 0 1 1.534 2.018l.761 15.25zM44.385 38.665a1.44 1.44 0 0 0-1.438 1.438v3.261l-.208.09a13.422 13.422 0 0 0-8.082 12.305l.001.07.003.343-.279.056a3.278 3.278 0 0 0-2.618 3.052l-.79 15.794a.519.519 0 0 0 .517.544h33.154a.522.522 0 0 0 .518-.544l-.788-15.794a3.28 3.28 0 0 0-2.619-3.052l-.279-.057.004-.336v-.076c0-5.34-3.172-10.17-8.081-12.305l-.207-.09v-3.261a1.44 1.44 0 0 0-1.439-1.438h-.402V36.42l-.001-.025-.027-.371.371-.007h1.385a2.356 2.356 0 0 0 2.289-1.788l.475-1.896h8.824c.734 0 1.413-.332 1.863-.911l5.894-7.578a.522.522 0 0 0 .057-.546.523.523 0 0 0-.466-.29H24.125a.521.521 0 0 0-.465.29.522.522 0 0 0 .057.546l5.893 7.577a2.346 2.346 0 0 0 1.863.912h8.826l.474 1.896a2.357 2.357 0 0 0 2.29 1.788h1.753l-.024.38-.001.023v2.245h-.406zm20.261 37.644H31.492a1.21 1.21 0 0 1-1.207-1.269l.79-15.794a3.966 3.966 0 0 1 2.894-3.627 14.112 14.112 0 0 1 8.288-12.706v-2.81c0-1.077.803-1.969 1.842-2.11v-1.286h-1.037a3.047 3.047 0 0 1-2.96-2.311l-.343-1.374h-8.286a3.031 3.031 0 0 1-2.408-1.178l-5.894-7.578a1.216 1.216 0 0 1-.132-1.272 1.216 1.216 0 0 1 1.086-.678h47.889c.459 0 .885.266 1.086.678.202.411.15.911-.131 1.272l-5.895 7.578a3.028 3.028 0 0 1-2.408 1.178h-8.285l-.344 1.374a3.047 3.047 0 0 1-2.959 2.311h-1.037v1.286a2.132 2.132 0 0 1 1.842 2.11v2.81c5 2.271 8.233 7.221 8.288 12.706a3.968 3.968 0 0 1 2.894 3.627l.789 15.794c.017.329-.104.654-.331.894a1.218 1.218 0 0 1-.877.375"/></svg>