<svg xmlns="http://www.w3.org/2000/svg" width="52" height="52" viewBox="20.582 22.35 52 52"><g fill="#FFF"><path d="M48.315 27.55c12.119 0 18.2 3.89 18.2 6.067 0 1.785-3.74 4.853-10.728 6.215l-3.614-1.354-.01-.09c1.737-.753 2.473-1.91 2.765-2.922.408-.178.726-.446.923-.78.22-.376.272-.815.142-1.234l-.163-.534c-.175-.566-.681-1.05-1.387-1.336-1.279-2.173-4.207-2.435-6.341-2.435-.153 0-.302.004-.45.01-.968.039-1.845-.064-2.471-.292-.353-.129-.493-.218-.537-.25-.36-.266-.825-.232-1.125-.08l-.523.296v.534a3.458 3.458 0 0 0 .056.623l-.042.036c-.103.095-.23.212-.386.369-.352.357-.65.758-.886 1.198-.693.287-1.192.766-1.365 1.326l-.164.535c-.129.42-.078.858.144 1.235.196.333.514.6.921.78.292 1.012 1.029 2.168 2.766 2.92l-.01.09-3.565 1.286c-6.748-1.396-10.35-4.392-10.35-6.146 0-2.177 6.083-6.067 18.2-6.067zm-3.067 9.442c-1.407-.458-2.207-1.243-2.38-2.333l-.094-.588-.584-.124a.935.935 0 0 1-.288-.104l.122-.4c.032-.058.22-.217.575-.32l.389-.11.165-.37c.172-.384.409-.732.704-1.031.13-.131.238-.23.324-.308.286-.26.472-.478.56-.758 1.032.34 2.185.376 2.985.342.123-.005.25-.008.377-.008 3.693 0 4.594 1.013 4.95 1.775l.168.359.38.108c.358.102.548.262.573.306l.128.416a.958.958 0 0 1-.288.103l-.585.123-.093.59c-.174 1.09-.975 1.874-2.381 2.332l-.674.22.187 1.61c.065.564.48 1.053 1.082 1.279l.635.238c-.207.023-.422.03-.633.05-1.035.079-2.103.132-3.238.132-1.507 0-2.925-.077-4.256-.213l.573-.207c.615-.221 1.038-.715 1.103-1.286l.185-1.603-.671-.22zm-7.677 3.815l-.222.081 2.99.626c2.435.51 5.048.77 7.763.77 1.399 0 2.77-.074 4.105-.21 2.286-.206 4.389-.586 6.27-1.097l.236-.049-.028-.011c5.909-1.651 9.564-4.576 9.564-7.3 0-3.834-7.456-7.8-19.934-7.8s-19.933 3.966-19.933 7.8c0 2.666 3.501 5.522 9.19 7.19"/><path d="M70.85 59.867v2.739c0 1.357-.621 2.66-1.735 3.853v-4.828c.051-.041.099-.084.149-.127l.152-.137c.216-.192.422-.386.616-.586.05-.05.103-.101.152-.153.221-.231.427-.469.62-.708.014-.02.031-.036.046-.053zM47.449 72.58v-5.197c.042 0 .084 0 .126.002.532.02 1.068.031 1.607.031.545 0 1.083-.012 1.617-.031.039-.002.078-.001.117-.002v5.197c-.573.022-1.15.037-1.734.037-.582 0-1.16-.015-1.733-.037zm-19.933-9.975v-2.739a12.28 12.28 0 0 0 1.733 1.757v4.834c-1.114-1.191-1.733-2.496-1.733-3.851zm-5.2-13v-2.739c.013.018.03.034.044.05.192.24.4.477.619.71.05.052.101.102.152.153.196.198.401.393.616.586.051.046.1.092.152.137l.15.129v4.828c-1.114-1.193-1.734-2.498-1.734-3.853zm2.6-11.885v3.218c0 .2.01.399.029.597.006.066.019.13.027.196.016.131.033.262.057.392.015.078.035.153.054.23.026.117.052.234.086.35.023.08.052.161.08.243.035.108.07.217.112.324.032.084.07.166.105.25.044.103.09.207.138.309.041.083.085.165.13.248.054.1.107.2.165.298a11.31 11.31 0 0 0 .343.536 9.961 9.961 0 0 0 .59.763c.078.092.16.182.243.272a10.686 10.686 0 0 0 .486.498 11.883 11.883 0 0 0 .53.483c.085.073.169.146.256.219.104.085.212.168.32.252.09.07.179.14.273.21.112.082.23.164.346.245.095.067.188.133.286.198.123.082.251.163.38.244.097.062.193.125.293.186.138.084.282.164.425.246.096.054.189.111.288.165.177.098.36.192.544.287.069.035.134.071.204.106.254.127.514.252.779.373l.282.123c.178.078.356.157.54.235.113.047.231.091.346.136.168.067.335.135.508.2.127.047.256.093.384.138.167.06.334.121.503.18.135.045.272.088.409.133a25.666 25.666 0 0 0 .94.289 27.568 27.568 0 0 0 .965.267c.177.046.353.092.533.135a40.589 40.589 0 0 0 1.009.231c.156.035.312.066.47.1a45.155 45.155 0 0 0 1.041.196c.194.034.39.065.586.096.16.026.321.052.483.076.2.03.402.057.603.084.162.022.325.043.489.063.208.025.417.049.627.072.16.017.321.035.483.051.217.02.436.04.654.057.161.013.32.027.483.039.228.016.458.03.689.043l.46.026.099.006c-.69.032-1.388.05-2.089.05-11.542 0-21.667-4.86-21.667-10.4 0-1.91 1.227-3.444 2.6-4.564zm23.4-13.637c12.149 0 21.666 4.188 21.666 9.534 0 5.54-10.125 10.4-21.667 10.4s-21.666-4.86-21.666-10.4c0-5.346 9.516-9.534 21.666-9.534zm21.666 14.118v2.738c0 1.357-.62 2.661-1.733 3.853v-4.828c.05-.041.099-.084.148-.127.052-.045.101-.09.152-.136.217-.193.422-.388.617-.586l.152-.154c.221-.232.426-.468.62-.708.014-.02.03-.036.044-.052zM42.25 66.87c.135.022.275.04.413.06a51.287 51.287 0 0 0 1.61.212c.33.037.663.07.997.1.15.013.296.028.447.04v5.2a42.183 42.183 0 0 1-3.467-.416v-5.196zm-4.334-.963c.839.24 1.703.46 2.6.647v5.192a35.713 35.713 0 0 1-2.6-.641v-5.198zM34.45 64.7c.557.235 1.135.457 1.733.664v5.186c-.603-.213-1.18-.44-1.733-.68V64.7zm31.2-15.094a4.73 4.73 0 0 1-.428 1.934l-.078.162a7.118 7.118 0 0 1-1.045 1.549c-.053.059-.1.118-.155.176-.008.01-.02.018-.027.027V49.76c.607-.27 1.186-.555 1.733-.854v.7zm-17.346 4.6c.287-.028.565-.07.85-.104.417-.05.837-.094 1.25-.157.173-.026.34-.061.513-.09v5.212l-.22.036c-.258.04-.52.079-.783.115-.204.027-.407.056-.613.082a45.92 45.92 0 0 1-1.852.182V54.27c.285-.024.573-.038.855-.065zm12.146 1.822v-4.996a30.762 30.762 0 0 0 1.733-.574v4.492c-.527.377-1.106.736-1.733 1.078zm-7.12-2.648c.361-.082.73-.16 1.085-.253.283-.074.555-.163.834-.243v5.22c-.833.24-1.701.456-2.6.643v-5.209c.23-.049.454-.105.68-.158zm3.653 4.17V52.33l.166-.059c.318-.114.643-.221.95-.343.213-.084.41-.179.617-.267v5.208c-.553.24-1.13.467-1.733.68zM41.84 61.3l.098.004c.037 0 .073.002.11.004l.22.007a49.757 49.757 0 0 0 2.922.02c.131-.004.26-.01.39-.015.053 0 .107-.004.162-.006l.237-.008.403-.016c.156-.008.31-.02.465-.028.235-.015.471-.027.703-.044.171-.013.34-.029.51-.043.214-.018.43-.035.642-.057.17-.015.336-.037.504-.055.209-.023.42-.044.627-.07.17-.021.336-.047.504-.07.201-.027.402-.053.602-.083l.5-.082c.195-.032.39-.062.583-.097.167-.03.329-.062.494-.094.186-.035.376-.07.56-.109.165-.033.327-.07.49-.106l.54-.12c.16-.04.319-.079.476-.12.177-.043.355-.087.527-.132.155-.041.306-.084.458-.127.172-.048.346-.096.516-.147.15-.045.299-.092.447-.139.165-.052.33-.103.492-.156.148-.049.291-.1.437-.15.16-.056.317-.11.472-.168.143-.052.283-.107.423-.16.152-.059.304-.118.454-.178.136-.056.27-.113.404-.17.146-.063.295-.125.438-.19.13-.058.258-.119.385-.177.142-.067.282-.133.421-.201.125-.063.248-.125.37-.19a19.137 19.137 0 0 0 1.128-.625c.111-.068.223-.135.331-.205.122-.076.241-.152.359-.23.105-.07.209-.141.312-.212.113-.079.227-.158.337-.239.099-.072.195-.145.291-.22.106-.082.212-.164.315-.248.091-.074.181-.15.271-.226.099-.085.196-.17.291-.256.085-.078.168-.154.249-.234a11.305 11.305 0 0 0 .496-.504 10.317 10.317 0 0 0 .663-.8c.063-.082.124-.166.185-.251.047-.069.093-.137.138-.207.766.667 1.192 1.34 1.192 1.912 0 2.344-6.424 6.903-18.201 6.903-3.566 0-6.486-.406-8.822-.97.487.037.982.063 1.479.085zM65.47 41.857c.334-.187.659-.38.97-.577l.074-.046v5.048a16.83 16.83 0 0 1-1.734 1.077v-5.132c.149-.076.293-.156.438-.234.085-.045.17-.09.252-.136zm-3.823 1.723c.358-.129.708-.265 1.053-.403l.291-.119c.02-.007.04-.015.057-.023v5.168c-.552.24-1.13.468-1.733.681v-5.183l.139-.048c.065-.026.129-.05.193-.073zm-3.143.958c.06-.015.116-.032.175-.047.304-.078.606-.16.902-.244v5.19c-.111.033-.223.064-.334.094l-.004.001a34.513 34.513 0 0 1-2.045.501l-.217.046v-5.192c.05-.01.096-.022.144-.033.468-.099.929-.203 1.379-.316zM51.973 45.6a42.534 42.534 0 0 0 1.848-.193c.482-.061.96-.126 1.428-.2v5.18c-.326.052-.646.113-.976.159-.173.023-.345.048-.52.07-.65.08-1.309.135-1.97.187v-5.186l.114-.008c.025-.004.05-.008.076-.009zm-3.658.149c.544 0 1.083-.013 1.618-.032.038-.002.077 0 .116-.002v5.18c-.578.022-1.152.054-1.734.054-.583 0-1.16-.014-1.733-.036v-5.198c.038.001.078 0 .116.002a46.95 46.95 0 0 0 1.617.032zm-6.933-.544c.47.075.947.14 1.428.2l.375.046c.486.056.977.108 1.473.148l.077.007.114.008v5.197a42.144 42.144 0 0 1-3.467-.414v-5.192zm-4.333-.958c.296.084.598.165.902.243l.175.047c.45.113.912.217 1.378.316.049.01.095.023.144.033v5.192a35.713 35.713 0 0 1-2.6-.641v-5.19zm-3.467-1.214l.058.023a27.203 27.203 0 0 0 1.344.522c.064.023.128.048.194.07l.138.05v5.184a26.492 26.492 0 0 1-1.733-.682v-5.167h-.001zm-3.466-1.8l.073.047c.312.197.637.39.97.577l.251.136c.145.079.289.157.438.234v5.132a16.829 16.829 0 0 1-1.733-1.077v-5.048zm-3.467-3.033l.044.05c.192.24.4.477.62.709.049.052.101.102.151.153.196.198.402.394.616.586.052.046.1.092.153.137.05.043.098.086.15.127v4.828c-1.115-1.192-1.734-2.496-1.734-3.853v-2.737zm17.333 16.215c.581 0 1.158-.02 1.734-.041v5.205l-.055.002a43.41 43.41 0 0 1-1.679.035c-.58 0-1.156-.03-1.733-.054v-5.18a44.515 44.515 0 0 0 1.733.033zm-5.131-.297c.486.057.976.107 1.473.148.026.002.051.006.077.007l.114.008v5.187a45.377 45.377 0 0 1-1.775-.166c-.282-.033-.56-.075-.84-.112-.288-.04-.568-.09-.852-.135v-5.183a38.084 38.084 0 0 0 1.803.246zm-5.059-.915c.451.114.913.218 1.379.317.048.01.095.022.143.033v5.192l-.147-.031a35.33 35.33 0 0 1-1.372-.318 35.147 35.147 0 0 1-1.08-.293v-5.19c.297.085.598.166.903.243l.174.047zm-4.194-1.361c.343.14.693.274 1.052.403.065.023.129.049.194.07.046.018.093.034.139.05v5.183a26.507 26.507 0 0 1-1.734-.682V51.7c.02.009.04.016.058.025l.29.119zM25.782 49.9l.074.046c.312.198.636.39.97.577l.251.136c.145.08.289.158.438.234v4.39h-1.246c-.167-.11-.33-.222-.487-.335v-5.048zm5.2 13c.54.346 1.125.671 1.734.984v5.142a16.658 16.658 0 0 1-1.734-1.078v-5.048zm34.666.993c.15-.076.293-.156.438-.234.084-.045.169-.09.25-.136.336-.186.66-.38.972-.577.024-.015.05-.03.073-.046v5.048c-.527.377-1.106.738-1.733 1.078v-5.133zm-3.466 1.472l.138-.048c.067-.023.13-.049.196-.071.357-.13.707-.265 1.051-.403l.292-.12.057-.023v5.168c-.553.24-1.129.469-1.733.682v-5.185h-.001zm-4.332 1.189c.048-.011.094-.024.142-.034.467-.098.928-.203 1.38-.316l.174-.047c.304-.078.605-.159.901-.244v5.191c-.832.24-1.7.455-2.6.642v-5.192h.003zm-5.087.72c.026-.002.05-.006.077-.007a44.011 44.011 0 0 0 1.847-.194c.483-.06.96-.125 1.428-.2v5.192c-1.12.181-2.278.323-3.467.415v-5.198c.038-.004.077-.005.115-.009zM70.85 55.282c0 5.541-10.125 10.4-21.668 10.4-.498 0-.993-.013-1.485-.03-.146-.005-.293-.01-.44-.017-.429-.019-.855-.045-1.278-.078-.276-.022-.549-.048-.822-.075l-.36-.036c-7.13-.767-13.195-3.339-15.848-6.588-.035-.043-.072-.085-.106-.128-.04-.051-.076-.104-.115-.157 1.22.522 2.547.98 3.97 1.366 3.848 2.53 9.834 3.98 16.483 3.98 11.748 0 19.934-4.552 19.934-8.637 0-1.203-.731-2.402-2.121-3.494.021-.061.037-.125.059-.187.029-.09.06-.18.085-.27.029-.104.053-.209.078-.315.02-.09.042-.182.06-.275a5.81 5.81 0 0 0 .046-.32c.012-.092.026-.184.034-.277l.01-.08c1.792 1.211 3.484 2.956 3.484 5.218zm-3.467-7.239v-.218c2.734-1.923 4.333-4.294 4.333-6.888v-7.321c0-6.423-10.06-11.267-23.4-11.267-13.34 0-23.4 4.844-23.4 11.267v1.967c-2.828 1.894-4.334 4.2-4.334 6.7v7.321c0 2.858 1.937 5.446 5.2 7.461v5.54c0 6.584 10.279 11.743 23.4 11.743 13.122 0 23.4-5.159 23.4-11.744v-7.322c0-2.76-1.808-5.25-5.2-7.239"/></g></svg>