<?xml version="1.0" encoding="utf-8"?>
<!-- Generator: Adobe Illustrator 16.0.0, SVG Export Plug-In . SVG Version: 6.00 Build 0)  -->
<!DOCTYPE svg PUBLIC "-//W3C//DTD SVG 1.1//EN" "http://www.w3.org/Graphics/SVG/1.1/DTD/svg11.dtd">
<svg version="1.1" id="Layer_1" xmlns="http://www.w3.org/2000/svg" xmlns:xlink="http://www.w3.org/1999/xlink" x="0px" y="0px"
	 width="187.675px" height="188.653px" viewBox="175.625 0.608 187.675 188.653"
	 enable-background="new 175.625 0.608 187.675 188.653" xml:space="preserve">
<g>
	<path fill="#FFFFFF" d="M293.702,67.983c-2.716-2.38-5.776-4.368-9.102-5.88c-4.656-2.118-9.819-3.308-15.26-3.308
		c-5.439,0-10.604,1.19-15.261,3.308c-3.324,1.512-6.387,3.5-9.101,5.88c-7.735,6.786-12.635,16.733-12.635,27.808
		c0,20.399,16.597,36.996,36.996,36.996c20.4,0,36.995-16.595,36.995-36.996C306.336,84.716,301.438,74.771,293.702,67.983z
		 M269.463,123.133c-15.102,0-27.343-12.241-27.343-27.342c0-15.1,12.24-27.34,27.343-27.34c15.102,0,27.342,12.239,27.342,27.34
		C296.805,110.894,284.565,123.133,269.463,123.133z"/>
	<g>
		<path fill="#FFFFFF" d="M326.182,0.608H224.749v46.795h-7.609V0.608h-4.396c-0.286,0-0.571,0.015-0.857,0.021v46.774h-7.612V1.589
			c-1.841,0.43-3.632,0.996-5.358,1.69v44.124h-7.612V7.433c-9.484,6.725-15.679,17.781-15.679,30.292v24.378h59.504
			c8.709-8.844,20.815-14.333,34.21-14.333c13.393,0,25.501,5.489,34.211,14.333h59.748V37.726h0.002
			C363.3,17.225,346.68,0.608,326.182,0.608z M346.334,42.589c0,3.288-2.666,5.954-5.954,5.954h-20.067
			c-3.288,0-5.953-2.666-5.953-5.954V22.082c0-3.288,2.665-5.954,5.953-5.954h20.067c3.288,0,5.954,2.666,5.954,5.954V42.589z"/>
		<path fill="#FFFFFF" d="M308.477,67.983c5.586,7.849,8.886,17.44,8.886,27.808c0,26.521-21.501,48.021-48.021,48.021
			c-26.521,0-48.021-21.5-48.021-48.021c0-10.367,3.297-19.959,8.885-27.808h-54.577v84.159c0,20.5,16.619,37.118,37.117,37.118
			h113.438c20.5,0,37.118-16.62,37.118-37.118V67.983H308.477z"/>
	</g>
</g>
</svg>
