<?xml version="1.0" encoding="utf-8"?>
<!-- Generator: Adobe Illustrator 16.0.0, SVG Export Plug-In . SVG Version: 6.00 Build 0)  -->
<!DOCTYPE svg PUBLIC "-//W3C//DTD SVG 1.1//EN" "http://www.w3.org/Graphics/SVG/1.1/DTD/svg11.dtd">
<svg version="1.1" id="Layer_1" xmlns="http://www.w3.org/2000/svg" xmlns:xlink="http://www.w3.org/1999/xlink" x="0px" y="0px"
	 width="188.44px" height="188.538px" viewBox="10.463 0.723 188.44 188.538" enable-background="new 10.463 0.723 188.44 188.538"
	 xml:space="preserve">
<g>
	<rect x="14.202" y="63.569" fill="#FFFFFF" width="38.905" height="125.692"/>
	<ellipse fill="#FFFFFF" cx="33.469" cy="23.916" rx="23.006" ry="23.193"/>
	<path fill="#FFFFFF" d="M198.904,189.261h-38.716c0,0,0-47.882,0-65.979c0-18.095-6.874-28.198-21.183-28.198
		c-15.571,0-23.708,10.522-23.708,28.198c0,19.357,0,65.979,0,65.979H77.982V63.569h37.315v16.928c0,0,11.222-20.763,37.874-20.763
		c26.654,0,45.731,16.274,45.731,49.94C198.904,143.342,198.904,189.261,198.904,189.261z"/>
</g>
</svg>
