<?xml version="1.0" encoding="utf-8"?>
<!-- Generator: Adobe Illustrator 16.0.0, SVG Export Plug-In . SVG Version: 6.00 Build 0)  -->
<!DOCTYPE svg PUBLIC "-//W3C//DTD SVG 1.1//EN" "http://www.w3.org/Graphics/SVG/1.1/DTD/svg11.dtd">
<svg version="1.1" id="Layer_1" xmlns="http://www.w3.org/2000/svg" xmlns:xlink="http://www.w3.org/1999/xlink" x="0px" y="0px"
	 width="412px" height="412px" viewBox="51.622 53.023 412 412" enable-background="new 51.622 53.023 412 412"
	 xml:space="preserve">
<circle fill="#EDD71E" cx="257.622" cy="259.023" r="206"/>
<g>
	<g>
		<path fill="#1A1818" d="M115.904,314.482V203.564h17.388v15.549c3.598-5.435,8.379-9.787,14.354-13.108
			c5.978-3.297,12.785-4.958,20.408-4.958c8.493,0,15.45,1.712,20.898,5.121c5.449,3.409,9.26,8.19,11.487,14.306
			c9.071-12.947,20.886-19.427,35.417-19.427c11.399,0,20.13,3.045,26.247,9.134c6.113,6.104,9.172,15.489,9.172,28.159v76.143
			H251.96v-69.878c0-7.523-0.641-12.933-1.887-16.242c-1.271-3.31-3.56-5.964-6.869-7.99c-3.31-2.013-7.185-3.031-11.651-3.031
			c-8.065,0-14.77,2.604-20.093,7.787c-5.334,5.184-7.988,13.488-7.988,24.912v64.442h-19.44v-72.066
			c0-8.354-1.584-14.619-4.743-18.797c-3.17-4.177-8.354-6.278-15.551-6.278c-5.474,0-10.53,1.396-15.173,4.188
			c-4.644,2.78-8.002,6.846-10.09,12.205c-2.103,5.385-3.134,13.11-3.134,23.201v57.547H115.904z"/>
		<path fill="#1A1818" d="M378.606,278.764l20.095,2.402c-3.185,11.349-9.035,20.155-17.604,26.435
			c-8.58,6.266-19.501,9.398-32.837,9.398c-16.771,0-30.058-4.996-39.896-14.997c-9.814-9.99-14.734-24.006-14.734-42.048
			c0-18.646,4.97-33.14,14.91-43.443c9.927-10.304,22.811-15.464,38.65-15.464c15.337,0,27.855,5.059,37.567,15.148
			c9.714,10.09,14.583,24.308,14.583,42.627c0,1.107-0.038,2.78-0.101,5.007h-85.518c0.705,12.179,4.267,21.515,10.682,27.994
			c6.404,6.479,14.394,9.712,23.969,9.712c7.134,0,13.223-1.798,18.256-5.422C371.661,292.49,375.65,286.702,378.606,278.764z
			 M314.806,248.367h64.026c-0.867-9.323-3.308-16.319-7.36-20.999c-6.188-7.234-14.203-10.857-24.067-10.857
			c-8.92,0-16.432,2.881-22.509,8.668C318.806,230.967,315.447,238.691,314.806,248.367z"/>
	</g>
</g>
</svg>
