<?xml version="1.0" encoding="utf-8"?>
<!-- Generator: Adobe Illustrator 16.0.0, SVG Export Plug-In . SVG Version: 6.00 Build 0)  -->
<!DOCTYPE svg PUBLIC "-//W3C//DTD SVG 1.1//EN" "http://www.w3.org/Graphics/SVG/1.1/DTD/svg11.dtd">
<svg version="1.1" id="Layer_1" xmlns="http://www.w3.org/2000/svg" xmlns:xlink="http://www.w3.org/1999/xlink" x="0px" y="0px"
	 width="283.437px" height="188.653px" viewBox="138.529 0.608 283.437 188.653"
	 enable-background="new 138.529 0.608 283.437 188.653" xml:space="preserve">
<g>
	<g>
		<path fill="#FFFFFF" d="M138.529,150.394V39.475h17.389v15.549c3.598-5.436,8.379-9.787,14.354-13.108
			c5.979-3.297,12.785-4.958,20.408-4.958c8.493,0,15.45,1.712,20.898,5.121s9.26,8.189,11.486,14.307
			c9.071-12.947,20.887-19.428,35.417-19.428c11.399,0,20.13,3.045,26.247,9.135c6.113,6.104,9.172,15.488,9.172,28.158v76.143
			h-19.314V80.517c0-7.523-0.642-12.934-1.887-16.242c-1.271-3.311-3.561-5.965-6.869-7.99c-3.311-2.014-7.186-3.031-11.651-3.031
			c-8.065,0-14.77,2.604-20.093,7.787c-5.334,5.184-7.988,13.488-7.988,24.912v64.441h-19.439V78.328
			c0-8.354-1.585-14.619-4.743-18.797c-3.17-4.177-8.354-6.278-15.552-6.278c-5.474,0-10.529,1.396-15.173,4.188
			c-4.644,2.78-8.002,6.846-10.09,12.204c-2.103,5.386-3.134,13.11-3.134,23.201v57.547H138.529L138.529,150.394z"/>
		<path fill="#FFFFFF" d="M401.231,114.675l20.095,2.402c-3.185,11.35-9.035,20.155-17.604,26.436
			c-8.58,6.266-19.501,9.397-32.837,9.397c-16.771,0-30.059-4.996-39.896-14.997c-9.813-9.99-14.733-24.006-14.733-42.048
			c0-18.646,4.97-33.14,14.909-43.443c9.928-10.304,22.812-15.464,38.65-15.464c15.337,0,27.855,5.059,37.567,15.148
			c9.714,10.09,14.583,24.308,14.583,42.627c0,1.107-0.038,2.779-0.102,5.007h-85.518c0.705,12.179,4.267,21.515,10.682,27.994
			c6.404,6.479,14.395,9.712,23.969,9.712c7.135,0,13.224-1.799,18.257-5.422C394.285,128.401,398.275,122.613,401.231,114.675z
			 M337.431,84.278h64.025c-0.866-9.323-3.308-16.319-7.359-20.999c-6.188-7.234-14.203-10.857-24.067-10.857
			c-8.92,0-16.432,2.882-22.509,8.669C341.431,66.878,338.072,74.603,337.431,84.278z"/>
	</g>
</g>
<rect x="138.529" y="0.608" fill="none" width="283.437" height="188.653"/>
</svg>
