<?xml version="1.0" encoding="utf-8"?>
<!-- Generator: Adobe Illustrator 18.1.1, SVG Export Plug-In . SVG Version: 6.00 Build 0)  -->
<!DOCTYPE svg PUBLIC "-//W3C//DTD SVG 1.1//EN" "http://www.w3.org/Graphics/SVG/1.1/DTD/svg11.dtd">
<svg version="1.1" id="Layer_1" xmlns="http://www.w3.org/2000/svg" xmlns:xlink="http://www.w3.org/1999/xlink" x="0px" y="0px"
	 viewBox="0 0 30 30" enable-background="new 0 0 30 30" xml:space="preserve">
<path id="XMLID_14_" fill="#FFFFFF" d="M15.1,3.2l-3.2-3.3L2.5,2.3L0,11.6l3.2,3.3l-3.3,3.2l2.4,9.3l9.3,2.6l3.3-3.2l3.2,3.3
	l9.3-2.4l2.6-9.3l-3.2-3.3l3.3-3.2l-2.4-9.3L18.4,0L15.1,3.2z M13.2,5l-3.1,3.1l-3.9-4l4.9-1.3L13.2,5z M15,16.9l3.1,3.1l-3.1,3.1
	L11.8,20L15,16.9z M10,18.1l-3.1-3.1l3.1-3.1l3.1,3.1L10,18.1z M16.9,15l3.1-3.1l3.1,3.1L20,18.2L16.9,15z M15,13.1L11.9,10l3.1-3.1
	l3.1,3.1L15,13.1z M2.9,10.9L4.3,6l3.9,4l-3.1,3.1L2.9,10.9z M5,16.8l3.1,3.1l-4,3.9l-1.3-4.9L5,16.8z M10.9,27.1L6,25.7l4-3.9
	l3.1,3.1L10.9,27.1z M16.8,25l3.1-3.1l3.9,4l-4.9,1.3L16.8,25z M27.1,19.1L25.7,24l-3.9-4l3.1-3.1L27.1,19.1z M25,13.2l-3.1-3.1
	l4-3.9l1.3,4.9L25,13.2z M24,4.3l-4,3.9l-3.1-3.1l2.2-2.2L24,4.3z"/>
</svg>
