<?xml version="1.0" encoding="utf-8"?>
<!-- Generator: Adobe Illustrator 16.0.0, SVG Export Plug-In . SVG Version: 6.00 Build 0)  -->
<!DOCTYPE svg PUBLIC "-//W3C//DTD SVG 1.1//EN" "http://www.w3.org/Graphics/SVG/1.1/DTD/svg11.dtd">
<svg version="1.1" id="Layer_1" xmlns="http://www.w3.org/2000/svg" xmlns:xlink="http://www.w3.org/1999/xlink" x="0px" y="0px"
	 width="412px" height="274px" viewBox="50 119 412 274" enable-background="new 50 119 412 274" xml:space="preserve">
<path id="laptop-4-icon" fill="#FFFFFF" d="M462,360v13c0,11.046-8.954,20-20,20H70c-11.046,0-20-8.954-20-20v-13h167.088
	c1.371,6.149,6.85,9.75,13.412,9.75h51c6.563,0,12.042-3.601,13.412-9.75H462z M399.834,146H112.166v172h287.668V146 M426.835,345
	H85.168V139c0-11.046,8.954-20,20-20h301.667c11.046,0,20,8.954,20,20V345z"/>
<polygon fill="#FFFFFF" points="222.874,168.845 301.945,230.447 268.495,236.078 290.52,280.621 269.82,291.219 247.686,245.848 
	222.874,269.029 "/>
</svg>
