<svg version="1.2" xmlns="http://www.w3.org/2000/svg" xmlns:xlink="http://www.w3.org/1999/xlink" overflow="visible" preserveAspectRatio="none" viewBox="0 0 35 28" width="35" height="28"><g transform="translate(0, 0)"><g transform="translate(-6.938893903907228e-17, 0) rotate(0)"><path d="M31.5,0h-28c-1.925,0 -3.4825,1.575 -3.4825,3.5l-0.0175,21c0,1.925 1.575,3.5 3.5,3.5h28c1.925,0 3.5,-1.575 3.5,-3.5v-21c0,-1.925 -1.575,-3.5 -3.5,-3.5zM31.5,7l-14,8.75l-14,-8.75v-3.5l14,8.75l14,-8.75z" style="stroke-width: 0; stroke-linecap: butt; stroke-linejoin: miter; fill: rgb(18, 18, 18);" vector-effect="non-scaling-stroke"/></g><defs><path id="path-1637627912051353" d="M31.5,0h-28c-1.925,0 -3.4825,1.575 -3.4825,3.5l-0.0175,21c0,1.925 1.575,3.5 3.5,3.5h28c1.925,0 3.5,-1.575 3.5,-3.5v-21c0,-1.925 -1.575,-3.5 -3.5,-3.5zM31.5,7l-14,8.75l-14,-8.75v-3.5l14,8.75l14,-8.75z" vector-effect="non-scaling-stroke"/></defs></g></svg>